<mxfile host="Electron" agent="Mozilla/5.0 (X11; Linux x86_64) AppleWebKit/537.36 (KHTML, like Gecko) draw.io/27.0.9 Chrome/134.0.6998.205 Electron/35.4.0 Safari/537.36" version="27.0.9">
  <diagram name="Strona-1" id="Q1XKOvzrGsfVocNPXmmV">
    <mxGraphModel dx="1426" dy="802" grid="1" gridSize="10" guides="1" tooltips="1" connect="1" arrows="1" fold="1" page="1" pageScale="1" pageWidth="1169" pageHeight="1654" math="0" shadow="0">
      <root>
        <mxCell id="0" />
        <mxCell id="1" parent="0" />
        <mxCell id="bO-v13MH5HJ8NyhI-YN9-1" value="&lt;font style=&quot;font-size: 24px;&quot;&gt;kafka&lt;/font&gt;" style="rounded=0;whiteSpace=wrap;html=1;" vertex="1" parent="1">
          <mxGeometry x="230" y="40" width="120" height="600" as="geometry" />
        </mxCell>
        <mxCell id="bO-v13MH5HJ8NyhI-YN9-2" value="&lt;font style=&quot;font-size: 24px;&quot;&gt;stream-data imitation&lt;br&gt;[kafka-producer app]&lt;/font&gt;" style="whiteSpace=wrap;html=1;aspect=fixed;" vertex="1" parent="1">
          <mxGeometry x="30" y="290" width="150" height="150" as="geometry" />
        </mxCell>
        <mxCell id="bO-v13MH5HJ8NyhI-YN9-4" value="" style="shape=flexArrow;endArrow=classic;html=1;rounded=0;exitX=1.013;exitY=0.46;exitDx=0;exitDy=0;exitPerimeter=0;entryX=0.008;entryY=0.535;entryDx=0;entryDy=0;entryPerimeter=0;" edge="1" parent="1" source="bO-v13MH5HJ8NyhI-YN9-2" target="bO-v13MH5HJ8NyhI-YN9-1">
          <mxGeometry width="50" height="50" relative="1" as="geometry">
            <mxPoint x="420" y="340" as="sourcePoint" />
            <mxPoint x="228" y="360" as="targetPoint" />
          </mxGeometry>
        </mxCell>
        <mxCell id="bO-v13MH5HJ8NyhI-YN9-5" value="" style="shape=flexArrow;endArrow=classic;html=1;rounded=0;exitX=1.008;exitY=0.533;exitDx=0;exitDy=0;exitPerimeter=0;" edge="1" parent="1" source="bO-v13MH5HJ8NyhI-YN9-1">
          <mxGeometry width="50" height="50" relative="1" as="geometry">
            <mxPoint x="420" y="340" as="sourcePoint" />
            <mxPoint x="440" y="360" as="targetPoint" />
          </mxGeometry>
        </mxCell>
        <mxCell id="bO-v13MH5HJ8NyhI-YN9-7" value="&lt;font style=&quot;font-size: 24px;&quot;&gt;spark-batch processing [spark-batch-app]&lt;/font&gt;" style="whiteSpace=wrap;html=1;aspect=fixed;" vertex="1" parent="1">
          <mxGeometry x="440" y="290" width="150" height="150" as="geometry" />
        </mxCell>
        <mxCell id="bO-v13MH5HJ8NyhI-YN9-9" value="&lt;font style=&quot;font-size: 16px;&quot;&gt;Postgre&lt;/font&gt;" style="shape=cylinder3;whiteSpace=wrap;html=1;boundedLbl=1;backgroundOutline=1;size=15;" vertex="1" parent="1">
          <mxGeometry x="750" y="370" width="70" height="100" as="geometry" />
        </mxCell>
        <mxCell id="bO-v13MH5HJ8NyhI-YN9-10" value="" style="endArrow=classic;html=1;rounded=0;entryX=0.5;entryY=0;entryDx=0;entryDy=0;fontColor=#FF33FF;" edge="1" parent="1" target="bO-v13MH5HJ8NyhI-YN9-7">
          <mxGeometry width="50" height="50" relative="1" as="geometry">
            <mxPoint x="515" y="160" as="sourcePoint" />
            <mxPoint x="470" y="290" as="targetPoint" />
          </mxGeometry>
        </mxCell>
        <mxCell id="bO-v13MH5HJ8NyhI-YN9-21" style="edgeStyle=orthogonalEdgeStyle;rounded=0;orthogonalLoop=1;jettySize=auto;html=1;entryX=1;entryY=0.5;entryDx=0;entryDy=0;entryPerimeter=0;" edge="1" parent="1" source="bO-v13MH5HJ8NyhI-YN9-11" target="bO-v13MH5HJ8NyhI-YN9-9">
          <mxGeometry relative="1" as="geometry">
            <mxPoint x="1000" y="400" as="targetPoint" />
            <Array as="points">
              <mxPoint x="1000" y="120" />
              <mxPoint x="1000" y="420" />
            </Array>
          </mxGeometry>
        </mxCell>
        <mxCell id="bO-v13MH5HJ8NyhI-YN9-11" value="scheduler&lt;font style=&quot;font-size: 24px;&quot;&gt; &lt;br&gt;&lt;/font&gt;[airflow DAGs]" style="rounded=1;whiteSpace=wrap;html=1;" vertex="1" parent="1">
          <mxGeometry x="440" y="80" width="135" height="80" as="geometry" />
        </mxCell>
        <mxCell id="bO-v13MH5HJ8NyhI-YN9-13" value="" style="shape=flexArrow;endArrow=classic;html=1;rounded=0;exitX=1;exitY=0.5;exitDx=0;exitDy=0;entryX=0;entryY=0.5;entryDx=0;entryDy=0;entryPerimeter=0;" edge="1" parent="1" source="bO-v13MH5HJ8NyhI-YN9-7" target="bO-v13MH5HJ8NyhI-YN9-9">
          <mxGeometry width="50" height="50" relative="1" as="geometry">
            <mxPoint x="510" y="430" as="sourcePoint" />
            <mxPoint x="515" y="520" as="targetPoint" />
          </mxGeometry>
        </mxCell>
        <mxCell id="bO-v13MH5HJ8NyhI-YN9-15" value="" style="endArrow=classic;html=1;rounded=0;exitX=1;exitY=0.5;exitDx=0;exitDy=0;" edge="1" parent="1" source="bO-v13MH5HJ8NyhI-YN9-7" target="bO-v13MH5HJ8NyhI-YN9-16">
          <mxGeometry width="50" height="50" relative="1" as="geometry">
            <mxPoint x="520" y="440" as="sourcePoint" />
            <mxPoint x="610" y="520" as="targetPoint" />
          </mxGeometry>
        </mxCell>
        <mxCell id="bO-v13MH5HJ8NyhI-YN9-16" value="&lt;font style=&quot;font-size: 17px;&quot;&gt;aws s3&lt;br&gt;(save kafka offsets)&lt;/font&gt;" style="ellipse;shape=cloud;whiteSpace=wrap;html=1;" vertex="1" parent="1">
          <mxGeometry x="722.5" y="200" width="125" height="100" as="geometry" />
        </mxCell>
        <mxCell id="bO-v13MH5HJ8NyhI-YN9-18" value="&lt;font style=&quot;font-size: 16px;&quot;&gt;task1&lt;/font&gt;" style="text;html=1;align=center;verticalAlign=middle;resizable=0;points=[];autosize=1;strokeColor=none;fillColor=none;" vertex="1" parent="1">
          <mxGeometry x="450" y="220" width="60" height="30" as="geometry" />
        </mxCell>
        <mxCell id="bO-v13MH5HJ8NyhI-YN9-19" value="&lt;font style=&quot;font-size: 17px;&quot;&gt;task2&lt;/font&gt;" style="text;html=1;align=center;verticalAlign=middle;resizable=0;points=[];autosize=1;strokeColor=none;fillColor=none;" vertex="1" parent="1">
          <mxGeometry x="605" y="80" width="60" height="30" as="geometry" />
        </mxCell>
        <mxCell id="bO-v13MH5HJ8NyhI-YN9-22" value="" style="endArrow=classic;html=1;rounded=0;entryX=0.724;entryY=0.92;entryDx=0;entryDy=0;entryPerimeter=0;exitX=0.614;exitY=-0.01;exitDx=0;exitDy=0;exitPerimeter=0;" edge="1" parent="1" source="bO-v13MH5HJ8NyhI-YN9-9" target="bO-v13MH5HJ8NyhI-YN9-16">
          <mxGeometry width="50" height="50" relative="1" as="geometry">
            <mxPoint x="800" y="360" as="sourcePoint" />
            <mxPoint x="710" y="260" as="targetPoint" />
          </mxGeometry>
        </mxCell>
      </root>
    </mxGraphModel>
  </diagram>
</mxfile>
